<svg xmlns="http://www.w3.org/2000/svg" xmlns:xlink="http://www.w3.org/1999/xlink" xml:space="preserve" enable-background="new 0 0 500 500" viewBox="0 0 500 500">
  <defs>
    <path id="a" fill="#fff" stroke="#aa7d50" stroke-miterlimit="10" stroke-width="2.5" d="M40.1 129.2v242.4L250 492.7l209.9-121.1V129.2L250 8z"/>
  </defs>
  <use xlink:href="#a" stroke-miterlimit="10" stroke-width="2.5"/>
  <defs>
    <filter id="b" width="422.2" height="487.5" x="38.9" y="6.6" filterUnits="userSpaceOnUse">
      <feFlood flood-color="#fff" flood-opacity="1" result="back"/>
      <feBlend in="SourceGraphic" in2="back"/>
    </filter>
  </defs>
  <mask id="c" width="422.2" height="487.5" x="38.9" y="6.6" maskUnits="userSpaceOnUse">
    <g filter="url(#b)">
      <path fill="none" stroke="#fff" stroke-miterlimit="10" stroke-width="2.5" d="M40.1 129.2v242.4L250 492.7l209.9-121.1V129.2L250 8z"/>
    </g>
  </mask>
  <use xlink:href="#a" stroke-miterlimit="10" stroke-width="2.5" mask="url(#c)"/>
  <path d="M111.4 318.6v9.3l4.1-2.3 4-2.3 4.4 2.4 4.4 2.5 2.8 1.7v13.3l-1.4.8-1.5.8-4.3 2.4-4.3 2.5-5.8-3.3-5.8-3.3v-26.5l3.4 2zm8.2 8.6-4.1 2.3-4.1 2.4v9.3l4.1 2.4 4 2.4 4.1-2.3 4.1-2.4V332a141 141 0 0 1-4-2.4l-4.1-2.4zm26-3.6 4.3 2.4 4.3 2.5 1.5.8 1.4.9-1.7.9-1.6 1-4.1-2.3-4-2.3-4.1 2.3-4.1 2.3.6.4.6.3 4.3 2.5 4.3 2.5 3.7 2.1 3.7 2.1 1.2.7 1.2.7-5.7 3.3-5.7 3.3-5.7-3.3-5.7-3.3 1.7-1 1.7-1 4 2.4 4.1 2.4 2.3-1.4 2.3-1.4-1-.6-1-.6-7.1-4.1-7.1-4.1v-3.9l5.8-3.4 5.6-3.1zm17.1-5v9.3l.5-.2.5-.3 3.6-2 3.5-2 5.8 3.3 5.8 3.3v20.3l-.2-.1-.1-.1-1.5-.9-1.5-.9v-16.2l-.4-.4-.6-.3-3.5-2-3.5-2.1-4.1 2.4-4.1 2.4v16.3l-1.7 1-1.7 1v-33.5l3.2 1.7zm33.8 4.6 5.8 3.3 5.8 3.3V343l-.2-.1-.2-.1-1.5-.8-1.5-.8v-9.4l-.1-.2-.3-.2-.3-.1-.2-.1-3.6-2.1-3.6-2.1-4 2.3-4.1 2.4v9.3l3.7 2.2 3.9 2.2.2.2.2.1.2-.1.3-.2 2.1-1.2 2-1.1 1.7 1 1.7 1-4 2.3-4 2.3-5.8-3.3-5.7-3.3v-13.3l5.7-3.3c2-1 3.9-2.2 5.8-3.3zm11.6 19.9v4l-3.5-1.9-3.4-2 1.7-.9 1.7-.9 1.7.9 1.8.8zm6.6-17.9v3.1l.5-.2.5-.3 3.6-2 3.5-2v3.9c-1.3.9-2.6 1.7-4 2.4l-4.1 2.3v15.9l-1.7 1-1.7 1v-26.9l1.7 1c.7.1 1.2.4 1.7.8zm32.4 4.6-5.7 3.3-5.8 3.3-1.6-1-1.7-1 4-2.4 4-2.4-2.3-1.4-2.3-1.3-4.1 2.3-4.1 2.4v9.3l4.1 2.4 4 2.4a141 141 0 0 0 4-2.4l4-2.4 3.4 2-5.7 3.3-5.8 3.3-5.7-3.3-5.8-3.3v-13.3l5-2.9 5-2.9.7-.5.7-.4.5.1.6.3 5.3 3.1c1.9 1.4 3.6 2.4 5.3 3.4z"/>
  <path fill="#a6a8ab" stroke="#929497" stroke-miterlimit="10" stroke-width=".5" d="M107 127.1v36.7c5.6-3 11-6 16.3-9.1l15.6-9.1 17.2 9.5c5.7 3.2 11.5 6.4 17.2 9.8l11.1 6.7v52.3a115.8 115.8 0 0 1-11.5 6.6l-16.9 9.6-16.9 10-22.8-13.2-22.8-13.2v-53.8l.1-25.8c.1-8.6 0-16.8-.1-24.7v-.4c4.9 2.9 9.4 5.5 13.5 8.1zm32.3 33.7-16.1 9.1-16.1 9.4V216l16.1 9.3c5.3 3 10.6 6.1 15.8 9.3l16.1-9.1 16.1-9.4v-36.7c-5.4-3.1-10.8-6.2-15.9-9.3l-16-9.3z"/>
  <path fill="#ff912e" d="m216.6 189.9 16.9 9.6 16.9 10c1.9 1.2 3.8 2.2 5.7 3.2 1.9 1 3.7 2.1 5.4 3.5l-6.6 3.6-6.4 3.8-16.1-9.1-15.8-9.1c-5.4 3-10.8 6-16 9.1-5.2 3.1-10.7 6.1-16.3 9.1.7.6 1.5 1.1 2.4 1.6l2.4 1.4c5.6 3.4 11.2 6.7 16.9 9.8 5.6 3.2 11.3 6.4 16.9 9.8a2445.6 2445.6 0 0 0 29.3 16.7l4.6 2.8a93 93 0 0 1 4.6 2.8l-22.4 13-22.4 13a959 959 0 0 1-22.6-13c-7.4-4.4-15-8.7-22.6-13 2.1-1.5 4.2-2.8 6.6-4l6.8-3.8a1104.4 1104.4 0 0 0 31.9 18.6c3-1.9 6-3.7 9.1-5.4 3.1-1.7 6.1-3.5 9.1-5.4a41 41 0 0 0-3.9-2.4 41 41 0 0 1-3.9-2.4c-9.3-5.4-18.6-10.8-28-16a883.6 883.6 0 0 1-28-16.3l.1-7.8c.1-2.6 0-5-.1-7.4l22.8-13.3a707 707 0 0 1 22.7-13z"/>
  <path fill="#1969ff" d="M332.2 205.3a18.5 18.5 0 0 1 15.6 0l45.1 23.7c2.7 1.4 4.1 3.5 4.4 5.6v119.1c-.1 2.3-1.5 4.7-4.4 6.2l-45.1 23.7a18.5 18.5 0 0 1-15.6 0l-45.1-23.7c-2.9-1.5-4.3-3.9-4.3-6.2V234.6c.2-2.2 1.6-4.2 4.3-5.6l45.1-23.7zm58 95.8-42.4 22.3a18.5 18.5 0 0 1-15.6 0l-42.3-22.2v52.4l42.3 22.1c2.4 1.3 4.9 2.5 7.3 2.7h.5c2.5 0 5-1.3 7.5-2.5l42.7-22.5v-52.3zm-114.7 50c0 4.6.5 7.6 1.6 9.7a12 12 0 0 0 4.6 4.7l.1.1 1.8 1.2.8.5 2.6 1.5-3.7 6-2.9-1.7-.5-.3-2.2-1.4c-6.8-4.6-9.4-9.6-9.5-20v-.3h7.3zm61-82-.9.4-45.1 23.7-.1.1h.1l.1.1 45.1 23.7.9.4v-48.4zm7.1 0v48.4l.9-.4 45.1-23.7.1-.1h-.1l-.1-.1-45.1-23.7-.8-.4zm46.6-26-40.4 21.3 40.4 21.3v-42.6zm-100.3 0v42.4l40.4-21.2-40.4-21.2zm54.6-31.6a11.5 11.5 0 0 0-8.9 0l-45.1 23.7-.1.1h.1l.1.1 45.1 23.7c2.3 1.2 6.6 1.2 8.9 0l45.1-23.7.1-.1h-.1l-.1-.1-45.1-23.7zm52.4 2.6 2.9 1.7.5.3 2.2 1.4c6.8 4.6 9.4 9.6 9.5 20v.3h-7.1c0-4.6-.5-7.6-1.6-9.7a12 12 0 0 0-4.6-4.7l-.1-.1-1.8-1.2-.8-.5-2.6-1.5 3.5-6z"/>
</svg>
