<svg id="Layer_1" data-name="Layer 1" xmlns="http://www.w3.org/2000/svg" viewBox="0 0 1000 1000"><defs><style>.cls-1{fill:#aa7d50;}.cls-2{fill:#fff;}</style></defs><circle class="cls-1" cx="502.67" cy="500" r="470.39"/><path class="cls-2" d="M397.38,320.8V434.89q26.13-13.83,50.52-28.24t48.6-28.24Q523.38,393,550.08,407.8t53.59,30.55l34.58,20.74v162.5Q629.4,627,620.77,632t-18.25,10.37q-26.13,14.59-52.44,30t-52.43,31.12q-35.73-20.74-70.88-40.92t-70.87-40.9V454.48q0-40,.38-80.1t-.38-76.64v-1.15Q378.18,308.89,397.38,320.8ZM497.65,425.67q-25.35,13.83-50.13,28.42t-50.14,29.2V597.38q25.37,14.61,50.14,28.81t49,28.81q25.35-13.82,50.13-28.42t50.13-29.2V483.29q-25.35-14.6-49.56-28.81T497.65,425.67Z"/><path class="cls-2" d="M248.3,222.77l-33.42,34.49L191.67,237.5l21.18-22.91,6.78,7.82-13.32,14.21,7,6.32,21.06-20.72-21.05-22.14a413.6,413.6,0,0,0-36.06,39.09L209.17,265a379.32,379.32,0,0,0-37.4,55.67L126.32,295.8l29.23-46.13L180.73,268l-16.92,25.26-8.57-5.34,11.2-17.43L158,264.65,140.9,291.57l26.28,15.32L194.61,266l-32.05-24.63a421.07,421.07,0,0,1,51.6-56.11Z"/><path class="cls-2" d="M298.94,148.57c-.19-.43-.35-.91-.59-1.34-1.37-2.39-2.75-4.78-4.43-7.69l-27,16.91L284,181.59l42.44-25-18.26-36.13A427.77,427.77,0,0,1,379,92.23q7.28,24.52,14.42,48.67l-45,16.59-12.36-27.81,28.86-11.55,3.55,9.69-18.85,7.38c1.3,3.14,2.58,6.2,3.86,9.29l27.68-10.15c-3.1-9.59-6.2-19.16-9.58-29.6l-49.49,19.64,17.77,37.5c-20.11,9.83-39.42,20.85-57.67,34.21l-29.89-41.62c14.62-10.81,30-20.08,46.08-29,4.86,8.93,9.67,17.79,14.61,26.88l-26.15,15.49-5.49-8.53Z"/><path class="cls-2" d="M252.2,780l-34.37,38.82-38.48-38.67,23.46-20.58,20.82,22.13-7.13,6.52-14.55-14-7.78,7,22.89,22.28,20.69-22.16-33.88-35.83-31.14,25.86a421.58,421.58,0,0,1-43.23-62.8l44.15-24.92c8.81,13.48,17.48,26.77,26.25,40.2l-24.4,18.23-17.63-25.6,8.67-5.66,11.34,16.86,8.2-5.91L170,697.18l-26.72,15.93,30.26,43.82,32.6-25.7A382.78,382.78,0,0,0,252.2,780Z"/><path class="cls-2" d="M910.24,563.64c1.24-10.59,2.44-20.92,3.7-31.73l-30.32-2.35c-2.31,16.3-4.58,32.36-6.9,48.81l39.62,8.24a414.85,414.85,0,0,1-22.17,73l-47-19c5-15.16,10-30.13,15.11-45.5l29.46,7.66c-3,10-6,19.84-9.08,29.86l-9.76-3.45c2-6.36,4-12.56,6.12-19.2l-9.74-2.84c-3.1,9.38-6.1,18.46-9.26,28l29.07,11c5.17-17,10.26-33.7,15.49-50.92l-40.46-9.53a374.56,374.56,0,0,0,9.29-66.38l51.78,2.6c-2.08,18.14-4.12,36.05-6.2,54.22l-30.65-5.53c1.42-10.06,2.8-19.83,4.24-30l10,1c-.86,6.92-1.69,13.61-2.55,20.51Z"/><path class="cls-2" d="M882.84,465.51l30.48-2.72a438.6,438.6,0,0,0-8.08-52.51l-40.06,8.77a379.52,379.52,0,0,0-20.29-63.85l47.75-20.1c6,17.16,11.86,34.17,17.9,51.59l-30,8.28c-3.11-9.8-6.12-19.3-9.16-28.93l9.49-3.43c2.21,6.55,4.39,13,6.63,19.62l9.87-2.93c-3.47-10-6.89-19.88-10.45-30.18l-28.33,11.05c5,15.6,9.85,31,14.9,46.91l13.19-3.24c7.92-2,15.86-3.86,23.76-5.9,1.79-.47,2.56-.26,2.91,1.75,2.82,16.18,5.9,32.32,8.55,48.52,1.22,7.47,1.65,15.07,2.43,22.61.06.58,0,1.17,0,1.93L873.72,476c-2-15.87-4-31.46-6.09-47.55,3.37-.69,7.31-1.53,11.25-2.31,5.21-1,10.42-2,15.63-3.05,1.61-.31,3-.46,3.31,1.85,1.39,9.39,2.9,18.75,4.42,28.48l-10.32,1.08c-.95-6.75-1.85-13.19-2.8-20l-10,1.65C880.38,445.92,881.59,455.52,882.84,465.51Z"/><path class="cls-2" d="M785.87,814.77l-34.15-37.59,33.44-34.47,23.16,19.76-20.9,22.65-7.12-7.51,13.39-14.22-6.89-6.3-21.67,20.13,22,23.11,36-39.2L791.62,735.6l37.46-55.7,44.67,24.24c-9.79,15.41-19.47,30.67-29.29,46.14L819.29,732l16.91-25.27,8.57,5.35c-3.73,5.81-7.4,11.55-11.18,17.45L842,735.3l17.08-26.91-26.28-15.3c-9.14,13.64-18.18,27.12-27.42,40.92l32,24.61A423.67,423.67,0,0,1,785.87,814.77Z"/><path class="cls-2" d="M74.81,478.17C76.9,460,78.93,442.21,81,424l30.64,5.5c-1.4,9.93-2.79,19.7-4.23,29.93l-10.07-.85c.88-7,1.74-13.73,2.6-20.61l-10.17-1.59c-1.23,10.54-2.44,20.86-3.71,31.67l30.36,2.4c2.29-16.31,4.53-32.26,6.85-48.82l-39.61-8.26a417.38,417.38,0,0,1,22.17-73l47,19.06L137.73,405l-29.44-7.71c3-10,6-19.85,9-29.81l9.77,3.4L121,390.06l9.72,2.86c3.08-9.35,6.11-18.51,9.25-28L110.91,354c-5.19,17.06-10.27,33.78-15.47,50.91l40.46,9.53a370.14,370.14,0,0,0-9.32,66.38Z"/><path class="cls-2" d="M132.43,571.58l-29.88,5.79C101,567,99.4,557,97.79,546.57l10.31-1.08c1,6.77,1.87,13.3,2.81,20l9.94-1.65c-1.21-9.74-2.41-19.33-3.66-29.34l-30.45,2.71a411.16,411.16,0,0,0,8.08,52.52l40-8.77c1.34,5.39,2.36,10.9,4.09,16.19,4.9,15,10,30,15.21,44.93.62,1.81.94,2.84-1.28,3.75-14.76,6-29.46,12.21-44.19,18.33a8,8,0,0,1-1.35.12c-5.85-16.75-11.76-33.68-17.8-51L119.53,605l9.15,28.89-9.42,3.51-6.75-19.68-9.81,3c3.49,10.1,7,20.09,10.44,30.17l28.33-11.05c-5-15.64-9.89-31.15-14.9-46.95l-39.25,9.69a419.7,419.7,0,0,1-11.61-75.31L126.28,524C128.34,539.91,130.37,555.58,132.43,571.58Z"/><path class="cls-2" d="M335.6,836a378,378,0,0,0,62.58,23.94c-4.62,16.37-9.19,32.54-13.89,49.2-17.58-4.66-34.5-11-51.47-18,4.05-9.44,8-18.7,12.05-28.12l28.31,10.8L370,883.39l-19.53-7.14-3.81,9.59,30.07,10.66c3.11-10,6.1-19.56,9.06-29l-46-17.6-16.91,36.77a424.81,424.81,0,0,1-66.11-38l29-41.57,41,25L312.7,859l-26.95-15.6,5.38-8.41L308.6,845l4.87-8.8L288.24,820.8l-16.85,25.44a361.9,361.9,0,0,0,46.14,26.42C323.56,860.39,329.55,848.24,335.6,836Z"/><path class="cls-2" d="M687,847.59l26.12-15.48,5.49,8.53L701,851.45l5.09,9,27-16.93L716,818.39l-42.47,25c5.9,11.63,12,23.72,18.3,36.07A428.31,428.31,0,0,1,621,907.73l-14.46-48.68,45-16.47,12.36,27.73L635,881.83c-1.26-3.54-2.35-6.58-3.47-9.7l18.85-7.29c-1.26-3.27-2.45-6.36-3.68-9.58l-27.86,10.39c3.1,9.57,6.2,19.15,9.56,29.56l49.52-19.64-17.66-37.41c20-10,39.32-21,57.57-34.26L748.09,846l-46.26,29Z"/><path class="cls-2" d="M782.2,181.13l38.47,38.71-23.5,20.53-20.85-22.19,7.36-6.81L798,225.71l8-7.08L783.1,196.22l-20.83,22.32c11.24,11.87,22.42,23.7,33.86,35.8l31.19-25.83a424.36,424.36,0,0,1,43.16,62.79l-44.06,24.84L800.08,276l24.47-18.25,17.57,25.71-8.69,5.31c-3.77-5.54-7.47-11-11.26-16.57l-8.26,5.86L830,302.87l26.81-16L826.5,243c-11.2,8.83-21.87,17.23-32.61,25.68A378.86,378.86,0,0,0,747.81,220Z"/><path class="cls-2" d="M667,108.92c-4,9.39-7.89,18.61-11.91,28.06l-28.28-10.77,3.12-9.5,19.66,7c1.17-3.06,2.35-6.15,3.71-9.68l-30.07-10.58c-3.1,10-6.08,19.62-9,29.07l46,17.58,17-36.68a424.15,424.15,0,0,1,66.08,37.81q-14.76,21.12-29.07,41.63l-41-24.93c4.52-8.69,9.19-17.65,14.07-27l27.05,15.53-5.51,8.72L691.44,155c-1.65,2.94-3.22,5.75-4.92,8.77l25.22,15.36,16.82-25.39a380.22,380.22,0,0,0-46.07-26.49c-6,12.26-12,24.41-18,36.73a377,377,0,0,0-62.61-23.9c4.61-16.35,9.2-32.59,13.89-49.22C633.36,95.44,650.13,102.08,667,108.92Z"/><path class="cls-2" d="M567.87,80.2c-2.73,17-5.4,33.57-8,50.09L512,125.69c.33-9.74.66-19.83,1-30.42l30.9,2.2c-.31,3.46-.6,6.67-.92,10.21l-20.13-1.44c-.26,3.36-.52,6.58-.79,10L551.64,119c1.34-10,2.68-20,4.13-30.83l-53.08-3.72v41.59a371,371,0,0,0-67.13,5.49c-2.92-16.77-5.8-33.35-8.77-50.39,17.74-3.39,35.71-4.88,54.06-6.08.49,10.26,1,20.35,1.46,30.56l-30.19,2.61c-.41-3.17-.83-6.37-1.32-10.09l20.55-1.94c-.15-3.34-.3-6.47-.48-10.33L439,89.3c1.51,10.25,3,20.14,4.44,30.09l48.84-4V75A410.35,410.35,0,0,1,567.87,80.2Z"/><path class="cls-2" d="M488,874.25c-.32,9.9-.64,19.93-1,30.39l-30.9-2.12c.32-3.5.61-6.7.94-10.23l20.05,1.41c.29-3.47.55-6.59.83-10L448.4,880.9c-1.34,9.93-2.7,20-4.17,30.85l53.14,3.69V873.83a369.74,369.74,0,0,0,67.09-5.44c2.9,16.71,5.78,33.29,8.75,50.37-17.77,3.46-35.66,4.86-54.11,6.11-.45-10.14-.91-20.23-1.37-30.61L548,891.7c.38,3.31.75,6.42,1.18,10.09l-20.57,1.94c.19,3.3.38,6.45.61,10.33L561,910.67c-1.51-10.33-3-20.3-4.39-30.1l-48.83,4v40.34c-25.15.84-50.27-1.28-75.61-5.1l8.13-50.11Z"/><path class="cls-2" d="M75,489.12l51,1.23v9.51H75Z"/><path class="cls-2" d="M263.13,210.53l-7.32,6.29L222.32,178l8.28-7.09Z"/><path class="cls-2" d="M426.12,133.27l-9.35,2.08c-3.78-16.56-7.55-33.15-11.37-49.92L416,83C419.4,99.76,422.74,116.4,426.12,133.27Z"/><path class="cls-2" d="M234.86,832.46l-8.43-6.93,33-39.22,7.45,6.09Z"/><path class="cls-2" d="M234.92,167.63l8.51-6.82,31,40.85-7.51,6C256.35,194.44,245.78,181.21,234.92,167.63Z"/><path class="cls-2" d="M167.34,329.15l-4.43,8.53L116.8,315.42c1.7-3.36,3.26-6.45,4.93-9.73Z"/><path class="cls-2" d="M841,346.45l-3.89-8.79,46.11-22.24,4.5,9.93Z"/><path class="cls-2" d="M114.51,320.35,161,342c-1.36,3-2.61,5.78-3.95,8.73l-47-20.43Z"/><path class="cls-2" d="M765.11,832.36l-8.56,6.78-31-40.84,7.52-6Z"/><path class="cls-2" d="M736.9,789.44l7.26-6.33L777.7,822l-8.32,7Z"/><path class="cls-2" d="M592.6,137.58l-9.35-2.27,11.36-49.85,10.61,2.37C601,104.36,596.87,120.76,592.6,137.58Z"/><path class="cls-2" d="M752.22,157.5l8.63,6.7c-10.48,13.47-20.91,26.88-31.46,40.46l-7.58-5.94C732,184.92,742,171.34,752.22,157.5Z"/><path class="cls-2" d="M834.89,333.44l-4.37-8.55,45.2-24,5,9.69Z"/><path class="cls-2" d="M247.8,842.44l-8.65-6.66,31.44-40.45,7.63,5.87C268.05,815,258,828.63,247.8,842.44Z"/><path class="cls-2" d="M405.4,914.54l-10.62-2.46c4.22-16.57,8.37-32.92,12.63-49.63l9.36,2.17C413,881.36,409.2,897.84,405.4,914.54Z"/><path class="cls-2" d="M421.41,865.71l9.41,1.85c-3.12,16.69-6.2,33.19-9.39,50.24l-10.74-1.91C414.29,899,417.82,882.52,421.41,865.71Z"/><path class="cls-2" d="M578.61,134.26l-9.42-1.87c3.15-16.82,6.25-33.41,9.41-50.3l10.71,2C585.71,101,582.19,117.52,578.61,134.26Z"/><path class="cls-2" d="M583.22,864.57c1.64,7.12,3.28,14.14,4.88,21.17,2,8.83,3.94,17.69,6,26.5.44,1.86.1,2.58-1.85,2.88-2.61.4-5.17,1.15-8.29,1.87-3.37-16.75-6.72-33.43-10.1-50.27Z"/><path class="cls-2" d="M402.8,138.76C398.38,122.3,394,106,389.52,89.31l10.53-2.78,12,49.83Z"/><path class="cls-2" d="M587.92,863.55l9.31-2.3c4.41,16.43,8.79,32.73,13.26,49.39L600,913.45C596,896.83,592,880.35,587.92,863.55Z"/><path class="cls-2" d="M740.63,213.65l-7.47-6.09,32-40.06c2.73,2.24,5.41,4.42,8.43,6.88Z"/><path class="cls-2" d="M924.89,483.68v10.85H874v-9Z"/><path class="cls-2" d="M832.74,670.76c1.5-3,2.88-5.67,4.3-8.47l46.17,22.25-5,9.74Z"/><path class="cls-2" d="M116.81,684.55c-1.49-3.36-2.88-6.49-4.42-9.94L159,653.5c1.33,3,2.57,5.73,3.93,8.78Z"/><path class="cls-2" d="M75.19,516.3V505.47h50.92v8.92Z"/><path class="cls-2" d="M925,500.19V510.8l-51-1.15v-9.46Z"/><path class="cls-2" d="M169.54,675.05l-45.27,24c-1.66-3.2-3.26-6.31-5-9.71l45.84-22.85Z"/><path class="cls-2" d="M839.11,657.8c1.41-3,2.65-5.68,3.95-8.45L890,669.61c-1.55,3.43-3,6.55-4.51,10Z"/></svg>