<?xml version="1.0" encoding="UTF-8" standalone="no"?>
<!DOCTYPE svg PUBLIC "-//W3C//DTD SVG 1.1//EN" "http://www.w3.org/Graphics/SVG/1.1/DTD/svg11.dtd"
[
<!ATTLIST g
  xmlns:vectornator CDATA #FIXED "http://vectornator.io"
  vectornator:layerName CDATA #IMPLIED >
<!ATTLIST g
  xmlns:vectornator CDATA #FIXED "http://vectornator.io"
  vectornator:mask CDATA #IMPLIED >
<!ATTLIST text
  xmlns:vectornator CDATA #FIXED "http://vectornator.io"
  vectornator:width CDATA #IMPLIED >
<!ATTLIST text
  xmlns:vectornator CDATA #FIXED "http://vectornator.io"
  vectornator:text CDATA #IMPLIED >

<!ATTLIST path
  xmlns:vectornator CDATA #FIXED "http://vectornator.io"
  vectornator:blendMode CDATA #IMPLIED >
<!ATTLIST path
  xmlns:vectornator CDATA #FIXED "http://vectornator.io"
  vectornator:shadowColor CDATA #IMPLIED >
<!ATTLIST path
  xmlns:vectornator CDATA #FIXED "http://vectornator.io"
  vectornator:shadowOpacity CDATA #IMPLIED >
<!ATTLIST path
  xmlns:vectornator CDATA #FIXED "http://vectornator.io"
  vectornator:shadowRadius CDATA #IMPLIED >
<!ATTLIST path
  xmlns:vectornator CDATA #FIXED "http://vectornator.io"
  vectornator:shadowOffset CDATA #IMPLIED >
<!ATTLIST path
  xmlns:vectornator CDATA #FIXED "http://vectornator.io"
  vectornator:shadowAngle CDATA #IMPLIED >

<!ATTLIST image
  xmlns:vectornator CDATA #FIXED "http://vectornator.io"
  vectornator:blendMode CDATA #IMPLIED >
<!ATTLIST image
  xmlns:vectornator CDATA #FIXED "http://vectornator.io"
  vectornator:shadowColor CDATA #IMPLIED >
<!ATTLIST image
  xmlns:vectornator CDATA #FIXED "http://vectornator.io"
  vectornator:shadowOpacity CDATA #IMPLIED >
<!ATTLIST image
  xmlns:vectornator CDATA #FIXED "http://vectornator.io"
  vectornator:shadowRadius CDATA #IMPLIED >
<!ATTLIST image
  xmlns:vectornator CDATA #FIXED "http://vectornator.io"
  vectornator:shadowOffset CDATA #IMPLIED >
<!ATTLIST image
  xmlns:vectornator CDATA #FIXED "http://vectornator.io"
  vectornator:shadowAngle CDATA #IMPLIED >

<!ATTLIST g
  xmlns:vectornator CDATA #FIXED "http://vectornator.io"
  vectornator:blendMode CDATA #IMPLIED >
<!ATTLIST g
  xmlns:vectornator CDATA #FIXED "http://vectornator.io"
  vectornator:shadowColor CDATA #IMPLIED >
<!ATTLIST g
  xmlns:vectornator CDATA #FIXED "http://vectornator.io"
  vectornator:shadowOpacity CDATA #IMPLIED >
<!ATTLIST g
  xmlns:vectornator CDATA #FIXED "http://vectornator.io"
  vectornator:shadowRadius CDATA #IMPLIED >
<!ATTLIST g
  xmlns:vectornator CDATA #FIXED "http://vectornator.io"
  vectornator:shadowOffset CDATA #IMPLIED >
<!ATTLIST g
  xmlns:vectornator CDATA #FIXED "http://vectornator.io"
  vectornator:shadowAngle CDATA #IMPLIED >

<!ENTITY % SVG.filter.extra.content  "| feDropShadow" >
<!ELEMENT feDropShadow EMPTY>
<!ATTLIST feDropShadow
  xmlns:svg CDATA #FIXED "http://www.w3.org/Graphics/SVG/1.1/DTD/svg11.dtd"
  dx CDATA #IMPLIED>
<!ATTLIST feDropShadow
  xmlns:svg CDATA #FIXED "http://www.w3.org/Graphics/SVG/1.1/DTD/svg11.dtd"
  dy CDATA #IMPLIED>
<!ATTLIST feDropShadow
  xmlns:svg CDATA #FIXED "http://www.w3.org/Graphics/SVG/1.1/DTD/svg11.dtd"
  stdDeviation CDATA #IMPLIED>
<!ATTLIST feDropShadow
  xmlns:svg CDATA #FIXED "http://www.w3.org/Graphics/SVG/1.1/DTD/svg11.dtd"
  flood-opacity CDATA #IMPLIED>
<!ATTLIST feDropShadow
  xmlns:svg CDATA #FIXED "http://www.w3.org/Graphics/SVG/1.1/DTD/svg11.dtd"
  in CDATA #IMPLIED>
<!ATTLIST feDropShadow
  xmlns:svg CDATA #FIXED "http://www.w3.org/Graphics/SVG/1.1/DTD/svg11.dtd"
  result CDATA #IMPLIED>
<!ATTLIST feDropShadow
  xmlns:svg CDATA #FIXED "http://www.w3.org/Graphics/SVG/1.1/DTD/svg11.dtd"
  flood-color CDATA #IMPLIED>
]
>
<!-- Created with Vectornator (http://vectornator.io/) -->
<svg height="100%" stroke-miterlimit="10" style="fill-rule:nonzero;clip-rule:evenodd;stroke-linecap:round;stroke-linejoin:round;" version="1.1" viewBox="0 0 500 500" width="100%" xml:space="preserve" xmlns="http://www.w3.org/2000/svg" xmlns:vectornator="http://vectornator.io" xmlns:xlink="http://www.w3.org/1999/xlink">
<defs/>
<g id="Слой-1" vectornator:layerName="Слой 1">
<path d="M35.1474 126.21L35.1474 374.14L249.836 498.003L464.525 374.14L464.525 126.21L249.836 2.24432L35.1474 126.21Z" fill="#ffffff" fill-rule="evenodd" opacity="1" stroke="#aa7d50" stroke-linecap="butt" stroke-linejoin="miter" stroke-width="2.4565"/>
<path d="M35.1474 126.21L35.1474 374.14L249.836 498.003L464.525 374.14L464.525 126.21L249.836 2.24432L35.1474 126.21Z" fill="#ffffff" fill-rule="evenodd" opacity="1" stroke="#aa7d50" stroke-linecap="butt" stroke-linejoin="miter" stroke-width="2.4565"/>
<path d="M333.912 204.046C338.412 201.693 345.265 201.693 349.868 204.046L395.997 228.287C398.758 229.719 400.19 231.866 400.497 234.014L400.497 355.832C400.395 358.184 398.963 360.639 395.997 362.173L349.868 386.414C345.367 388.766 338.515 388.766 333.912 386.414L287.783 362.173C284.817 360.639 283.385 358.184 283.385 355.832L283.385 234.014C283.589 231.764 285.021 229.718 287.783 228.287L333.912 204.046L333.912 204.046ZM393.235 302.032L349.868 324.84C345.367 327.193 338.515 327.193 333.912 324.84L290.647 302.134L290.647 355.729L333.912 378.334C336.367 379.663 338.924 380.891 341.378 381.095L341.89 381.095C344.447 381.095 347.004 379.766 349.561 378.538L393.235 355.525L393.235 302.032L393.235 302.032ZM275.918 353.172C275.918 357.877 276.43 360.946 277.555 363.094C278.475 364.935 279.805 366.264 282.26 367.901L282.362 368.003C282.873 368.412 283.487 368.719 284.203 369.231L285.021 369.742L287.681 371.276L283.896 377.413L280.93 375.674L280.419 375.367C279.6 374.856 278.884 374.447 278.168 373.935C271.213 369.231 268.554 364.116 268.452 353.479L268.452 353.172L275.918 353.172L275.918 353.172ZM338.31 269.301C338.003 269.404 337.696 269.506 337.389 269.711L291.26 293.951C291.26 293.951 291.158 293.951 291.158 294.054L291.26 294.054L291.363 294.156L337.492 318.397C337.799 318.499 338.105 318.703 338.412 318.806L338.412 269.301L338.31 269.301L338.31 269.301ZM345.572 269.301L345.572 318.806C345.879 318.703 346.186 318.601 346.492 318.397L392.621 294.156C392.621 294.156 392.724 294.156 392.724 294.054L392.621 294.054L392.519 293.951L346.39 269.711C346.186 269.608 345.879 269.404 345.572 269.301L345.572 269.301ZM393.235 242.708L351.913 264.494L393.235 286.28L393.235 242.708L393.235 242.708ZM290.647 242.708L290.647 286.076L331.969 264.392L290.647 242.708L290.647 242.708ZM346.492 210.387C344.14 209.16 339.742 209.16 337.389 210.387L291.26 234.628C291.26 234.628 291.158 234.628 291.158 234.73L291.26 234.73L291.363 234.833L337.492 259.073C339.844 260.301 344.242 260.301 346.595 259.073L392.724 234.833C392.724 234.833 392.826 234.833 392.826 234.73L392.724 234.73L392.621 234.628L346.492 210.387ZM400.088 213.047L403.054 214.785L403.566 215.092C404.384 215.604 405.1 216.013 405.816 216.524C412.771 221.229 415.43 226.343 415.533 236.98L415.533 237.287L408.271 237.287C408.271 232.582 407.759 229.514 406.634 227.366C405.714 225.525 404.384 224.195 401.929 222.559L401.827 222.457C401.315 222.047 400.702 221.741 399.986 221.229L399.167 220.718L396.508 219.183L400.088 213.047L400.088 213.047Z" fill="#1969ff" fill-rule="evenodd" opacity="1" stroke="none"/>
<g opacity="1">
<path d="M95.0844 324.124C97.0278 325.147 98.8688 326.272 100.812 327.397C102.756 328.522 104.699 329.648 106.54 330.773C107.154 331.182 107.87 331.489 108.483 331.898C109.097 332.205 109.711 332.614 110.324 333.125C109.608 333.534 108.79 333.943 108.074 334.353C107.358 334.762 106.642 335.171 105.926 335.682C104.085 334.659 102.244 333.637 100.403 332.614C98.562 331.591 96.8232 330.568 94.9821 329.545C93.1411 330.568 91.3 331.591 89.5612 332.614C87.8224 333.637 85.8791 334.659 84.038 335.682C84.2426 335.887 84.5494 336.091 84.8563 336.194C85.1631 336.398 85.47 336.5 85.6745 336.705C87.6179 337.83 89.4589 338.955 91.4023 340.08C93.3456 341.205 95.289 342.33 97.1301 343.456C98.7666 344.376 100.403 345.297 102.04 346.217C103.676 347.138 105.415 348.058 107.051 349.081C107.563 349.388 108.074 349.695 108.586 350.002C109.097 350.308 109.711 350.615 110.12 350.922C107.563 352.354 105.006 353.888 102.449 355.32C99.8917 356.854 97.3346 358.286 94.7776 359.718C92.1183 358.286 89.5612 356.752 87.1065 355.32C84.5494 353.786 81.9924 352.354 79.4354 350.922C80.1513 350.411 80.8673 350.002 81.6855 349.592C82.5038 349.183 83.2198 348.774 84.038 348.263C85.7768 349.286 87.6179 350.411 89.4589 351.434C91.3 352.456 93.1411 353.479 94.9821 354.604C96.005 353.991 97.0278 353.377 98.0506 352.763C99.0734 352.15 100.096 351.536 101.119 350.922C100.71 350.615 100.199 350.308 99.7894 350.104C99.3803 349.899 98.8688 349.592 98.4597 349.286C95.289 347.445 92.1183 345.603 88.9475 343.865C85.7768 342.126 82.6061 340.183 79.4354 338.342C79.4354 337.421 79.4354 336.603 79.4354 335.682C79.4354 334.762 79.4354 333.943 79.4354 333.125C82.0947 331.591 84.6517 330.057 87.2087 328.625C89.8681 327.091 92.4251 325.556 95.0844 324.124Z" fill="#000000" fill-rule="evenodd" opacity="1" stroke="none"/>
<path d="M128.94 324.227C130.781 325.249 132.622 326.272 134.463 327.397C136.304 328.522 138.043 329.545 139.884 330.568C141.725 329.545 143.566 328.522 145.407 327.397C147.248 326.375 148.987 325.249 150.828 324.227C153.487 325.761 156.044 327.193 158.601 328.727C161.158 330.159 163.818 331.693 166.375 333.227L166.375 343.251L166.375 351.127L161.772 348.467L161.772 341.615L161.772 335.887C160.851 335.375 159.931 334.762 159.01 334.25C158.09 333.739 157.169 333.227 156.249 332.716C155.328 332.205 154.408 331.693 153.487 331.182C152.567 330.67 151.748 330.057 150.828 329.648C148.987 330.67 147.146 331.795 145.305 332.818C143.464 333.841 141.623 334.864 139.781 335.887C138.043 334.864 136.202 333.841 134.361 332.818C132.519 331.795 130.781 330.773 128.94 329.648C127.099 330.67 125.257 331.795 123.416 332.818C121.575 333.841 119.837 334.864 117.996 335.989L117.996 348.57C117.28 348.979 116.461 349.49 115.643 349.899C114.825 350.308 114.109 350.718 113.291 351.127L113.291 324.533C114.109 324.943 114.927 325.352 115.643 325.761C116.461 326.17 117.177 326.681 117.893 327.193L117.893 330.773C119.734 329.75 121.575 328.727 123.314 327.602C125.36 326.375 127.099 325.352 128.94 324.227Z" fill="#000000" fill-rule="evenodd" opacity="1" stroke="none"/>
<path d="M200.128 332.409C197.571 333.943 195.014 335.375 192.456 336.91C189.899 338.342 187.342 339.876 184.683 341.41C183.967 341.001 183.251 340.489 182.535 340.08C181.819 339.671 181.001 339.16 180.285 338.751C182.024 337.728 183.865 336.603 185.706 335.58C187.547 334.557 189.286 333.534 191.127 332.409C190.104 331.795 189.081 331.182 188.058 330.568C187.036 329.954 186.013 329.443 184.99 328.829C183.149 329.852 181.308 330.875 179.467 332C177.626 333.023 175.785 334.148 173.944 335.171L173.944 347.751C175.785 348.774 177.626 349.899 179.467 350.922C181.308 351.945 183.047 352.968 184.888 354.093C186.729 353.07 188.57 351.945 190.309 350.922C192.047 349.899 193.888 348.877 195.729 347.751L200.332 350.411C197.775 351.945 195.218 353.377 192.661 354.911C190.104 356.343 187.547 357.877 184.888 359.309C182.331 357.877 179.774 356.343 177.217 354.911C174.659 353.377 172.102 351.945 169.443 350.513L169.443 332.716C171.591 331.489 173.841 330.159 176.091 328.829C178.342 327.5 180.592 326.272 182.842 324.943C183.149 324.738 183.456 324.534 183.763 324.329C184.069 324.124 184.376 323.92 184.683 323.818C184.888 323.715 185.092 323.818 185.297 323.92C185.501 324.022 185.808 324.227 186.115 324.329C188.467 325.761 190.82 327.091 193.275 328.522C195.525 329.75 197.877 331.08 200.128 332.409Z" fill="#000000" fill-rule="evenodd" opacity="1" stroke="none"/>
<path d="M203.912 297.429C204.628 297.838 205.446 298.349 206.162 298.759C206.878 299.168 207.696 299.577 208.412 300.088L208.412 348.365L203.81 351.024L203.81 300.6L203.912 297.429L203.912 297.429Z" fill="#000000" fill-rule="evenodd" opacity="1" stroke="none"/>
<path d="M218.027 336.194C217.311 335.784 216.493 335.273 215.674 334.864C214.856 334.455 214.14 333.943 213.424 333.534C215.981 332.102 218.538 330.568 220.993 329.136C223.55 327.602 226.107 326.17 228.664 324.738C228.766 325.659 228.766 326.477 228.664 327.397C228.664 328.318 228.664 329.136 228.664 329.954C228.255 330.261 227.744 330.568 227.334 330.773C226.925 331.08 226.414 331.284 226.005 331.591C224.675 332.307 223.345 333.125 221.914 333.841C220.788 334.557 219.357 335.375 218.027 336.194ZM228.971 306.839C228.971 306.737 228.971 306.737 229.073 306.737C229.789 307.248 230.505 307.657 231.221 308.066C231.937 308.475 232.755 308.884 233.471 309.396C233.574 311.851 233.574 314.305 233.471 316.658C233.471 319.01 233.471 321.465 233.471 323.818L233.471 338.751L233.471 357.877C232.755 358.286 231.937 358.696 231.221 359.105C230.505 359.514 229.687 360.025 228.971 360.332L228.971 352.252L228.971 337.83C228.971 337.83 228.971 306.839 228.971 306.839ZM233.574 327.397C235.312 328.42 237.154 329.443 238.892 330.466C240.631 331.489 242.472 332.511 244.211 333.534C243.495 333.943 242.779 334.455 241.961 334.864C241.142 335.273 240.427 335.784 239.711 336.194C238.688 335.682 237.563 335.068 236.54 334.455C235.517 333.841 234.494 333.227 233.471 332.716L233.471 327.397L233.574 327.397Z" fill="#000000" fill-rule="evenodd" opacity="1" stroke="none"/>
</g>
<g opacity="1">
<path d="M163.409 109.742L183.865 122.63L110.529 164.463L126.485 174.896L200.946 131.426L247.689 159.246L247.689 170.6L163.409 220.002L143.157 206.91L216.288 164.872L199.002 154.951L125.871 198.42L78.8217 170.293L78.8217 159.246L163.409 109.742Z" fill="#aa7d50" fill-rule="evenodd" opacity="1" stroke="none"/>
<path d="M145.407 265.722L127.099 277.484L78.8217 250.379L78.8217 183.078L163.409 232.378L247.689 183.078L247.689 249.97L163.204 298.656L143.464 286.28L225.8 238.924L225.8 220.002L163.409 255.187L100.71 220.002L100.71 238.924L145.407 265.722Z" fill="#a6a8ab" fill-rule="evenodd" opacity="1" stroke="none"/>
</g>
</g>
</svg>
