<?xml version="1.0" encoding="UTF-8" standalone="no"?>
<!DOCTYPE svg PUBLIC "-//W3C//DTD SVG 1.1//EN" "http://www.w3.org/Graphics/SVG/1.1/DTD/svg11.dtd"
[
<!ATTLIST g
  xmlns:vectornator CDATA #FIXED "http://vectornator.io"
  vectornator:layerName CDATA #IMPLIED >
<!ATTLIST g
  xmlns:vectornator CDATA #FIXED "http://vectornator.io"
  vectornator:mask CDATA #IMPLIED >
<!ATTLIST text
  xmlns:vectornator CDATA #FIXED "http://vectornator.io"
  vectornator:width CDATA #IMPLIED >
<!ATTLIST text
  xmlns:vectornator CDATA #FIXED "http://vectornator.io"
  vectornator:text CDATA #IMPLIED >

<!ATTLIST path
  xmlns:vectornator CDATA #FIXED "http://vectornator.io"
  vectornator:blendMode CDATA #IMPLIED >
<!ATTLIST path
  xmlns:vectornator CDATA #FIXED "http://vectornator.io"
  vectornator:shadowColor CDATA #IMPLIED >
<!ATTLIST path
  xmlns:vectornator CDATA #FIXED "http://vectornator.io"
  vectornator:shadowOpacity CDATA #IMPLIED >
<!ATTLIST path
  xmlns:vectornator CDATA #FIXED "http://vectornator.io"
  vectornator:shadowRadius CDATA #IMPLIED >
<!ATTLIST path
  xmlns:vectornator CDATA #FIXED "http://vectornator.io"
  vectornator:shadowOffset CDATA #IMPLIED >
<!ATTLIST path
  xmlns:vectornator CDATA #FIXED "http://vectornator.io"
  vectornator:shadowAngle CDATA #IMPLIED >

<!ATTLIST image
  xmlns:vectornator CDATA #FIXED "http://vectornator.io"
  vectornator:blendMode CDATA #IMPLIED >
<!ATTLIST image
  xmlns:vectornator CDATA #FIXED "http://vectornator.io"
  vectornator:shadowColor CDATA #IMPLIED >
<!ATTLIST image
  xmlns:vectornator CDATA #FIXED "http://vectornator.io"
  vectornator:shadowOpacity CDATA #IMPLIED >
<!ATTLIST image
  xmlns:vectornator CDATA #FIXED "http://vectornator.io"
  vectornator:shadowRadius CDATA #IMPLIED >
<!ATTLIST image
  xmlns:vectornator CDATA #FIXED "http://vectornator.io"
  vectornator:shadowOffset CDATA #IMPLIED >
<!ATTLIST image
  xmlns:vectornator CDATA #FIXED "http://vectornator.io"
  vectornator:shadowAngle CDATA #IMPLIED >

<!ATTLIST g
  xmlns:vectornator CDATA #FIXED "http://vectornator.io"
  vectornator:blendMode CDATA #IMPLIED >
<!ATTLIST g
  xmlns:vectornator CDATA #FIXED "http://vectornator.io"
  vectornator:shadowColor CDATA #IMPLIED >
<!ATTLIST g
  xmlns:vectornator CDATA #FIXED "http://vectornator.io"
  vectornator:shadowOpacity CDATA #IMPLIED >
<!ATTLIST g
  xmlns:vectornator CDATA #FIXED "http://vectornator.io"
  vectornator:shadowRadius CDATA #IMPLIED >
<!ATTLIST g
  xmlns:vectornator CDATA #FIXED "http://vectornator.io"
  vectornator:shadowOffset CDATA #IMPLIED >
<!ATTLIST g
  xmlns:vectornator CDATA #FIXED "http://vectornator.io"
  vectornator:shadowAngle CDATA #IMPLIED >

<!ENTITY % SVG.filter.extra.content  "| feDropShadow" >
<!ELEMENT feDropShadow EMPTY>
<!ATTLIST feDropShadow
  xmlns:svg CDATA #FIXED "http://www.w3.org/Graphics/SVG/1.1/DTD/svg11.dtd"
  dx CDATA #IMPLIED>
<!ATTLIST feDropShadow
  xmlns:svg CDATA #FIXED "http://www.w3.org/Graphics/SVG/1.1/DTD/svg11.dtd"
  dy CDATA #IMPLIED>
<!ATTLIST feDropShadow
  xmlns:svg CDATA #FIXED "http://www.w3.org/Graphics/SVG/1.1/DTD/svg11.dtd"
  stdDeviation CDATA #IMPLIED>
<!ATTLIST feDropShadow
  xmlns:svg CDATA #FIXED "http://www.w3.org/Graphics/SVG/1.1/DTD/svg11.dtd"
  flood-opacity CDATA #IMPLIED>
<!ATTLIST feDropShadow
  xmlns:svg CDATA #FIXED "http://www.w3.org/Graphics/SVG/1.1/DTD/svg11.dtd"
  in CDATA #IMPLIED>
<!ATTLIST feDropShadow
  xmlns:svg CDATA #FIXED "http://www.w3.org/Graphics/SVG/1.1/DTD/svg11.dtd"
  result CDATA #IMPLIED>
<!ATTLIST feDropShadow
  xmlns:svg CDATA #FIXED "http://www.w3.org/Graphics/SVG/1.1/DTD/svg11.dtd"
  flood-color CDATA #IMPLIED>
]
>
<!-- Created with Vectornator (http://vectornator.io/) -->
<svg height="100%" stroke-miterlimit="10" style="fill-rule:nonzero;clip-rule:evenodd;stroke-linecap:round;stroke-linejoin:round;" version="1.1" viewBox="0 0 500 500" width="100%" xml:space="preserve" xmlns="http://www.w3.org/2000/svg" xmlns:vectornator="http://vectornator.io" xmlns:xlink="http://www.w3.org/1999/xlink">
<defs/>
<g id="Слой-1" vectornator:layerName="Слой 1" visibility="hidden">
<path d="M250.331 10.6683L250.331 10.6683C381.981 10.6683 488.704 117.392 488.704 249.042L488.704 249.042C488.704 380.692 381.981 487.415 250.331 487.415L250.331 487.415C118.681 487.415 11.9574 380.692 11.9574 249.042L11.9574 249.042C11.9574 117.392 118.681 10.6683 250.331 10.6683Z" fill="none" fill-rule="evenodd" opacity="1" stroke="#000000" stroke-linecap="round" stroke-linejoin="round" stroke-width="11"/>
</g>
<g id="Слой-2" vectornator:layerName="Слой 2" visibility="hidden">
<path d="M365.837 158.841C354.575 170.103 344.922 176.538 336.877 178.147C332.855 178.951 328.833 179.756 324.811 180.56C327.224 181.365 329.638 182.169 332.051 182.973C336.877 184.582 345.726 181.365 358.597 173.32C365.032 169.298 371.468 165.276 377.903 161.254C376.294 165.276 374.685 169.298 373.076 173.32C369.859 181.365 356.184 193.431 332.051 209.519C307.918 225.608 291.025 234.456 281.372 236.065C271.719 237.674 263.675 235.261 257.24 228.825C250.804 222.39 240.347 216.759 225.867 211.933C218.628 209.519 211.388 207.106 204.148 204.693C212.997 210.324 221.845 215.955 230.694 221.586C239.543 227.217 248.391 232.848 257.24 238.479C252.413 241.696 247.587 244.914 242.76 248.132C233.107 254.567 225.867 257.785 221.041 257.785C216.214 257.785 202.539 248.936 180.015 231.239C157.492 213.541 139.794 203.888 126.924 202.28C120.488 201.475 114.053 200.671 107.617 199.866C112.444 201.475 117.271 203.084 122.097 204.693C131.75 207.911 147.839 218.368 170.362 236.065C181.624 244.914 192.886 253.763 204.148 262.611C193.691 271.46 183.233 280.308 172.776 289.157C151.861 306.854 136.577 328.574 126.924 354.315C122.097 367.186 117.271 380.057 112.444 392.927C121.293 387.296 130.141 381.665 138.99 376.035C147.839 370.404 156.687 364.773 165.536 359.142C163.123 358.337 160.709 357.533 158.296 356.728C153.469 355.12 147.839 357.533 141.403 363.968C138.185 367.186 134.968 370.404 131.75 373.621C130.946 372.012 130.141 370.404 129.337 368.795C127.728 365.577 130.141 357.533 136.577 344.662C143.012 331.791 154.274 318.116 170.362 303.637C186.451 289.157 198.517 280.308 206.561 277.091C214.605 273.873 224.259 276.286 235.52 284.331C246.782 292.375 258.044 297.201 269.306 298.81C274.937 299.615 280.568 300.419 286.199 301.223C276.546 296.397 266.893 291.57 257.24 286.744C247.587 281.917 237.934 277.091 228.281 272.264C233.912 269.047 239.543 265.829 245.173 262.611C256.435 256.176 269.306 256.98 283.786 265.024C298.265 273.069 311.136 277.091 322.398 277.091C328.029 277.091 333.66 277.091 339.291 277.091C333.66 275.482 328.029 273.873 322.398 272.264C311.136 269.047 302.287 263.416 295.852 255.371C292.634 251.349 289.417 247.327 286.199 243.305C294.243 240.892 302.287 238.479 310.332 236.065C326.42 231.239 341.704 222.39 356.184 209.519C370.663 196.649 380.316 184.582 385.143 173.32C389.969 162.059 392.383 154.014 392.383 149.188C392.383 146.775 392.383 144.361 392.383 141.948C390.774 141.948 389.165 141.948 387.556 141.948C384.338 141.948 377.099 147.579 365.837 158.841Z" fill="#000000" fill-rule="evenodd" opacity="1" stroke="#000000" stroke-linecap="round" stroke-linejoin="round" stroke-width="1"/>
</g>
<g id="Smelt_White" vectornator:layerName="Smelt_White" visibility="hidden">
<path d="M428.233 92.2576C410.792 109.699 395.842 119.665 383.384 122.156C377.156 123.402 370.927 124.648 364.698 125.894C368.435 127.139 372.172 128.385 375.91 129.631C383.384 132.123 397.088 127.139 417.02 114.682C426.987 108.453 436.953 102.224 446.919 95.9949C444.428 102.224 441.936 108.453 439.445 114.682C434.461 127.139 413.283 145.826 375.91 170.742C338.536 195.657 312.375 209.361 297.426 211.852C282.476 214.344 270.019 210.607 260.052 200.64C250.086 190.674 233.891 181.954 211.467 174.479C200.255 170.742 189.043 167.004 177.831 163.267C191.535 171.987 205.238 180.708 218.942 189.428C232.645 198.149 246.349 206.869 260.052 215.59C252.578 220.573 245.103 225.556 237.628 230.539C222.679 240.505 211.467 245.488 203.992 245.488C196.518 245.488 175.339 231.785 140.458 204.378C105.576 176.971 78.1687 162.021 58.2363 159.53C48.2701 158.284 38.3038 157.038 28.3376 155.792C35.8123 158.284 43.2869 160.775 50.7616 163.267C65.711 168.25 90.6265 184.445 125.508 211.852C142.949 225.556 160.39 239.259 177.831 252.963C161.636 266.667 145.441 280.37 129.246 294.074C96.8554 321.481 73.1856 355.117 58.2363 394.982C50.7616 414.914 43.2869 434.847 35.8123 454.779C49.5158 446.059 63.2194 437.338 76.923 428.618C90.6265 419.897 104.33 411.177 118.034 402.456C114.296 401.211 110.559 399.965 106.822 398.719C99.347 396.228 90.6265 399.965 80.6603 409.931C75.6772 414.914 70.6941 419.897 65.711 424.88C64.4652 422.389 63.2194 419.897 61.9736 417.406C59.4821 412.423 63.2194 399.965 73.1856 380.032C83.1519 360.1 100.593 338.922 125.508 316.498C150.424 294.074 169.111 280.37 181.568 275.387C194.026 270.404 208.975 274.141 226.416 286.599C243.857 299.057 261.298 306.532 278.739 309.023C287.46 310.269 296.18 311.515 304.9 312.76C289.951 305.286 275.002 297.811 260.052 290.336C245.103 282.862 230.154 275.387 215.204 267.912C223.925 262.929 232.645 257.946 241.366 252.963C258.807 242.997 278.739 244.243 301.163 256.7C323.587 269.158 343.52 275.387 360.96 275.387C369.681 275.387 378.401 275.387 387.122 275.387C378.401 272.895 369.681 270.404 360.96 267.912C343.52 262.929 329.816 254.209 319.85 241.751C314.867 235.522 309.884 229.293 304.9 223.064C317.358 219.327 329.816 215.59 342.274 211.852C367.189 204.378 390.859 190.674 413.283 170.742C435.707 150.809 450.657 132.123 458.131 114.682C465.606 97.2407 469.343 84.7829 469.343 77.3083C469.343 73.5709 469.343 69.8336 469.343 66.0963C466.852 66.0963 464.36 66.0963 461.869 66.0963C456.885 66.0963 445.673 74.8167 428.233 92.2576Z" fill="#ffffff" fill-rule="evenodd" opacity="1" stroke="#000000" stroke-linecap="round" stroke-linejoin="round" stroke-width="1"/>
</g>
<g id="Smelt_White_Full" vectornator:layerName="Smelt_White_Full" visibility="hidden">
<path d="M428.233 92.2576C410.792 109.699 395.842 119.665 383.384 122.156C377.156 123.402 370.927 124.648 364.698 125.894C368.435 127.139 372.172 128.385 375.91 129.631C383.384 132.123 397.088 127.139 417.02 114.682C426.987 108.453 436.953 102.224 446.919 95.9949C444.428 102.224 441.936 108.453 439.445 114.682C434.461 127.139 413.283 145.826 375.91 170.742C338.536 195.657 312.375 209.361 297.426 211.852C282.476 214.344 270.019 210.607 260.052 200.64C250.086 190.674 233.891 181.954 211.467 174.479C200.255 170.742 189.043 167.004 177.831 163.267C191.535 171.987 205.238 180.708 218.942 189.428C232.645 198.149 246.349 206.869 260.052 215.59C252.578 220.573 245.103 225.556 237.628 230.539C222.679 240.505 211.467 245.488 203.992 245.488C196.518 245.488 175.339 231.785 140.458 204.378C105.576 176.971 78.1687 162.021 58.2363 159.53C48.2701 158.284 38.3038 157.038 28.3376 155.792C35.8123 158.284 43.2869 160.775 50.7616 163.267C65.711 168.25 90.6265 184.445 125.508 211.852C142.949 225.556 160.39 239.259 177.831 252.963C161.636 266.667 145.441 280.37 129.246 294.074C96.8554 321.481 73.1856 355.117 58.2363 394.982C50.7616 414.914 43.2869 434.847 35.8123 454.779C49.5158 446.059 63.2194 437.338 76.923 428.618C90.6265 419.897 104.33 411.177 118.034 402.456C114.296 401.211 110.559 399.965 106.822 398.719C99.347 396.228 90.6265 399.965 80.6603 409.931C75.6772 414.914 70.6941 419.897 65.711 424.88C64.4652 422.389 63.2194 419.897 61.9736 417.406C59.4821 412.423 63.2194 399.965 73.1856 380.032C83.1519 360.1 100.593 338.922 125.508 316.498C150.424 294.074 169.111 280.37 181.568 275.387C194.026 270.404 208.975 274.141 226.416 286.599C243.857 299.057 261.298 306.532 278.739 309.023C287.46 310.269 296.18 311.515 304.9 312.76C289.951 305.286 275.002 297.811 260.052 290.336C245.103 282.862 230.154 275.387 215.204 267.912C223.925 262.929 232.645 257.946 241.366 252.963C258.807 242.997 278.739 244.243 301.163 256.7C323.587 269.158 343.52 275.387 360.96 275.387C369.681 275.387 378.401 275.387 387.122 275.387C378.401 272.895 369.681 270.404 360.96 267.912C343.52 262.929 329.816 254.209 319.85 241.751C314.867 235.522 309.884 229.293 304.9 223.064C317.358 219.327 329.816 215.59 342.274 211.852C367.189 204.378 390.859 190.674 413.283 170.742C435.707 150.809 450.657 132.123 458.131 114.682C465.606 97.2407 469.343 84.7829 469.343 77.3083C469.343 73.5709 469.343 69.8336 469.343 66.0963C466.852 66.0963 464.36 66.0963 461.869 66.0963C456.885 66.0963 445.673 74.8167 428.233 92.2576Z" fill="#ffffff" fill-rule="evenodd" opacity="1" stroke="#ffffff" stroke-linecap="round" stroke-linejoin="round" stroke-width="1"/>
</g>
<g id="Слой-3" vectornator:layerName="Слой 3" visibility="hidden">
<path d="M162.736 143.639C160.708 145.667 158.68 147.696 156.652 149.724C187.073 149.724 217.495 149.724 247.916 149.724C278.337 149.724 308.758 149.724 339.179 149.724C337.151 147.696 335.123 145.667 333.095 143.639C329.039 139.583 300.646 137.555 247.916 137.555C195.186 137.555 166.792 139.583 162.736 143.639Z" fill="#000000" fill-rule="evenodd" opacity="1" stroke="#000000" stroke-linecap="round" stroke-linejoin="round" stroke-width="1"/>
<path d="M168.821 177.103C189.101 179.131 199.242 183.187 199.242 189.271C199.242 195.355 182.003 230.847 147.526 295.746C130.287 328.195 113.048 360.644 95.8096 393.093C131.301 368.756 166.792 344.419 202.284 320.083C273.267 271.409 310.786 247.072 314.842 247.072C318.899 247.072 332.081 267.352 354.39 307.914C365.545 328.195 376.699 348.476 387.853 368.756C378.727 346.448 369.601 324.139 360.474 301.83C342.222 257.212 342.222 230.847 360.474 222.735C378.727 214.622 390.896 210.566 396.98 210.566C403.064 210.566 408.134 214.622 412.19 222.735C414.218 226.791 416.247 230.847 418.275 234.903C418.275 231.861 418.275 228.819 418.275 225.777C418.275 219.692 412.19 214.622 400.022 210.566C387.853 206.51 371.629 208.538 351.348 216.65C331.067 224.763 317.885 223.749 311.8 213.608C305.716 203.468 302.674 196.369 302.674 192.313C302.674 188.257 313.828 184.201 336.137 180.145C347.292 178.117 358.446 176.089 369.601 174.061C354.39 174.061 339.179 174.061 323.969 174.061C308.758 174.061 293.548 174.061 278.337 174.061C283.407 185.215 288.477 196.369 293.548 207.524C298.618 218.678 303.688 229.833 308.758 240.987C299.632 245.043 290.505 249.1 281.379 253.156C263.126 261.268 236.761 278.507 202.284 304.872C167.807 331.237 148.54 343.405 144.484 341.377C142.455 340.363 140.427 339.349 138.399 338.335C151.582 310.956 164.764 283.577 177.947 256.198C191.129 228.819 204.312 201.44 217.495 174.061C204.312 174.061 191.129 174.061 177.947 174.061C164.764 174.061 151.582 174.061 138.399 174.061C148.54 175.075 158.68 176.089 168.821 177.103Z" fill="#000000" fill-rule="evenodd" opacity="1" stroke="#000000" stroke-linecap="round" stroke-linejoin="round" stroke-width="1"/>
</g>
<g id="Home" vectornator:layerName="Home" visibility="hidden">
<path d="M111.129 79.7417C108.113 82.7573 105.098 85.7729 102.082 88.7885C147.316 88.7885 192.55 88.7885 237.784 88.7885C283.018 88.7885 328.252 88.7885 373.486 88.7885C370.471 85.7729 367.455 82.7573 364.44 79.7417C358.408 73.7105 316.19 70.6949 237.784 70.6949C159.379 70.6949 117.16 73.7105 111.129 79.7417Z" fill="#ffffff" fill-rule="evenodd" opacity="1" stroke="#000000" stroke-linecap="round" stroke-linejoin="round" stroke-width="1"/>
<path d="M120.176 129.499C150.332 132.515 165.41 138.546 165.41 147.593C165.41 156.64 139.777 209.413 88.5118 305.912C62.8792 354.162 37.2465 402.411 11.6139 450.661C64.387 414.474 117.16 378.287 169.933 342.099C275.479 269.725 331.268 233.538 337.299 233.538C343.33 233.538 362.932 263.694 396.103 324.006C412.689 354.162 429.275 384.318 445.861 414.474C432.291 381.302 418.72 348.13 405.15 314.959C378.01 248.616 378.01 209.413 405.15 197.35C432.291 185.288 450.384 179.257 459.431 179.257C468.478 179.257 476.017 185.288 482.048 197.35C485.064 203.381 488.079 209.413 491.095 215.444C491.095 210.92 491.095 206.397 491.095 201.874C491.095 192.827 482.048 185.288 463.955 179.257C445.861 173.225 421.736 176.241 391.58 188.303C361.424 200.366 341.823 198.858 332.776 183.78C323.729 168.702 319.206 158.147 319.206 152.116C319.206 146.085 335.791 140.054 368.963 134.023C385.549 131.007 402.135 127.991 418.72 124.976C396.103 124.976 373.486 124.976 350.869 124.976C328.252 124.976 305.635 124.976 283.018 124.976C290.557 141.562 298.096 158.147 305.635 174.733C313.174 191.319 320.713 207.905 328.252 224.491C314.682 230.522 301.112 236.553 287.542 242.584C260.401 254.647 221.198 280.279 169.933 319.482C118.668 358.685 90.0196 376.779 83.9884 373.763C80.9728 372.255 77.9572 370.747 74.9416 369.24C94.543 328.529 114.144 287.818 133.746 247.108C153.347 206.397 172.949 165.686 192.55 124.976C172.949 124.976 153.347 124.976 133.746 124.976C114.144 124.976 94.543 124.976 74.9416 124.976C90.0196 126.484 105.098 127.991 120.176 129.499Z" fill="#ffffff" fill-rule="evenodd" opacity="1" stroke="#000000" stroke-linecap="round" stroke-linejoin="round" stroke-width="1"/>
</g>
<g id="Слой-4" vectornator:layerName="Слой 4" visibility="hidden">
<path d="M246.019 128.232C244.193 167.933 242.14 191.435 239.858 198.736C237.576 206.038 234.154 214.024 229.59 222.694C225.027 231.364 219.551 238.894 213.162 245.283C206.774 251.671 191.714 255.322 167.985 256.235C144.255 257.148 130.109 257.832 125.545 258.288C120.982 258.745 118.7 259.429 118.7 260.342C118.7 261.255 126.458 262.395 141.974 263.764C157.489 265.133 178.252 266.046 204.264 266.502C230.275 266.959 243.509 272.435 243.965 282.931C244.421 293.426 244.193 299.587 243.281 301.412C242.368 303.238 237.348 309.17 228.221 319.209C219.095 329.249 209.74 337.463 200.157 343.852C195.365 347.046 190.574 350.24 185.782 353.435C186.238 353.663 186.695 353.891 187.151 354.119C188.064 354.576 192.399 352.978 200.157 349.328C207.914 345.677 217.269 339.288 228.221 330.162C233.697 325.598 239.174 321.035 244.65 316.471C245.106 328.564 245.562 340.657 246.019 352.75C246.931 376.936 247.616 391.311 248.072 395.874C248.528 400.438 249.213 402.719 250.126 402.719C251.038 402.719 252.179 385.835 253.548 352.066C254.917 318.297 256.971 299.587 259.709 295.936C262.447 292.286 265.413 286.581 268.607 278.824C271.802 271.066 290.283 266.731 324.052 265.818C357.821 264.905 377.672 264.221 383.604 263.764C389.537 263.308 393.416 262.852 395.241 262.395C397.066 261.939 397.979 261.255 397.979 260.342C397.979 259.429 378.128 258.288 338.427 256.919C318.576 256.235 298.726 255.55 278.875 254.866C280.928 247.793 282.982 240.719 285.035 233.646C289.142 219.5 292.109 205.81 293.934 192.576C294.847 185.959 295.759 179.342 296.672 172.725C298.497 177.517 300.323 182.308 302.148 187.1C305.799 196.683 308.537 203.3 310.362 206.95C312.188 210.601 313.557 212.426 314.469 212.426C314.926 212.426 315.382 212.426 315.838 212.426C312.644 199.193 309.45 185.959 306.255 172.725C299.866 146.257 295.303 133.252 292.565 133.708C289.827 134.164 287.089 145.573 284.351 167.933C281.613 190.294 278.419 208.776 274.768 223.379C271.117 237.981 268.607 246.88 267.238 250.074C265.869 253.269 263.816 254.866 261.078 254.866C258.34 254.866 256.514 231.136 255.602 183.677C254.689 136.218 253.776 105.415 252.864 91.2687C251.951 77.1222 251.038 69.8208 250.126 69.3645C249.669 69.1363 249.213 68.9082 248.757 68.68C247.844 88.5307 246.931 108.381 246.019 128.232Z" fill="#000000" fill-rule="evenodd" opacity="1" stroke="#000000" stroke-linecap="round" stroke-linejoin="round" stroke-width="1"/>
<path d="M233.919 248.36C230.764 253.092 227.61 257.824 224.455 262.556C227.835 262.556 231.215 262.556 234.595 262.556C237.975 262.556 241.355 262.556 244.735 262.556C244.51 257.824 244.285 253.092 244.059 248.36C243.834 243.628 243.609 238.896 243.383 234.164C240.229 238.896 237.074 243.628 233.919 248.36Z" fill="#ffffff" fill-rule="evenodd" opacity="1" stroke="#ffffff" stroke-linecap="round" stroke-linejoin="round" stroke-width="1"/>
<path d="M257.58 279.457C257.354 281.034 257.129 282.612 256.904 284.189C257.805 282.837 258.706 281.485 259.608 280.133C260.509 278.781 261.41 277.429 262.312 276.077C261.636 275.851 260.96 275.626 260.284 275.401C259.608 275.175 258.932 274.95 258.256 274.725C258.03 276.302 257.805 277.88 257.58 279.457Z" fill="#ffffff" fill-rule="evenodd" opacity="1" stroke="#ffffff" stroke-linecap="round" stroke-linejoin="round" stroke-width="1"/>
</g>
<g id="Слой-4-скопировать" vectornator:layerName="Слой 4 скопировать" visibility="hidden">
<path d="M246.019 128.232C244.193 167.933 242.14 191.435 239.858 198.736C237.576 206.038 234.154 214.024 229.59 222.694C225.027 231.364 219.551 238.894 213.162 245.283C206.774 251.671 191.714 255.322 167.985 256.235C144.255 257.148 130.109 257.832 125.545 258.288C120.982 258.745 118.7 259.429 118.7 260.342C118.7 261.255 126.458 262.395 141.974 263.764C157.489 265.133 178.252 266.046 204.264 266.502C230.275 266.959 243.509 272.435 243.965 282.931C244.421 293.426 244.193 299.587 243.281 301.412C242.368 303.238 237.348 309.17 228.221 319.209C219.095 329.249 209.74 337.463 200.157 343.852C195.365 347.046 190.574 350.24 185.782 353.435C186.238 353.663 186.695 353.891 187.151 354.119C188.064 354.576 192.399 352.978 200.157 349.328C207.914 345.677 217.269 339.288 228.221 330.162C233.697 325.598 239.174 321.035 244.65 316.471C245.106 328.564 245.562 340.657 246.019 352.75C246.931 376.936 247.616 391.311 248.072 395.874C248.528 400.438 249.213 402.719 250.126 402.719C251.038 402.719 252.179 385.835 253.548 352.066C254.917 318.297 256.971 299.587 259.709 295.936C262.447 292.286 265.413 286.581 268.607 278.824C271.802 271.066 290.283 266.731 324.052 265.818C357.821 264.905 377.672 264.221 383.604 263.764C389.537 263.308 393.416 262.852 395.241 262.395C397.066 261.939 397.979 261.255 397.979 260.342C397.979 259.429 378.128 258.288 338.427 256.919C318.576 256.235 298.726 255.55 278.875 254.866C280.928 247.793 282.982 240.719 285.035 233.646C289.142 219.5 292.109 205.81 293.934 192.576C294.847 185.959 295.759 179.342 296.672 172.725C298.497 177.517 300.323 182.308 302.148 187.1C305.799 196.683 308.537 203.3 310.362 206.95C312.188 210.601 313.557 212.426 314.469 212.426C314.926 212.426 315.382 212.426 315.838 212.426C312.644 199.193 309.45 185.959 306.255 172.725C299.866 146.257 295.303 133.252 292.565 133.708C289.827 134.164 287.089 145.573 284.351 167.933C281.613 190.294 278.419 208.776 274.768 223.379C271.117 237.981 268.607 246.88 267.238 250.074C265.869 253.269 263.816 254.866 261.078 254.866C258.34 254.866 256.514 231.136 255.602 183.677C254.689 136.218 253.776 105.415 252.864 91.2687C251.951 77.1222 251.038 69.8208 250.126 69.3645C249.669 69.1363 249.213 68.9082 248.757 68.68C247.844 88.5307 246.931 108.381 246.019 128.232Z" fill="#000000" fill-rule="evenodd" opacity="1" stroke="#000000" stroke-linecap="round" stroke-linejoin="round" stroke-width="1"/>
<path d="M233.919 248.36C230.764 253.092 227.61 257.824 224.455 262.556C227.835 262.556 231.215 262.556 234.595 262.556C237.975 262.556 241.355 262.556 244.735 262.556C244.51 257.824 244.285 253.092 244.059 248.36C243.834 243.628 243.609 238.896 243.383 234.164C240.229 238.896 237.074 243.628 233.919 248.36Z" fill="#ffffff" fill-rule="evenodd" opacity="1" stroke="#ffffff" stroke-linecap="round" stroke-linejoin="round" stroke-width="1"/>
<path d="M257.58 279.457C257.354 281.034 257.129 282.612 256.904 284.189C257.805 282.837 258.706 281.485 259.608 280.133C260.509 278.781 261.41 277.429 262.312 276.077C261.636 275.851 260.96 275.626 260.284 275.401C259.608 275.175 258.932 274.95 258.256 274.725C258.03 276.302 257.805 277.88 257.58 279.457Z" fill="#ffffff" fill-rule="evenodd" opacity="1" stroke="#ffffff" stroke-linecap="round" stroke-linejoin="round" stroke-width="1"/>
</g>
<g id="Слой-4-скопировать_2" vectornator:layerName="Слой 4 скопировать">
<path d="M241.125 94.8626C238.49 152.174 235.525 186.101 232.231 196.641C228.938 207.181 223.997 218.709 217.409 231.225C210.822 243.742 202.917 254.611 193.694 263.834C184.471 273.057 162.732 278.327 128.477 279.644C94.2216 280.962 73.8002 281.95 67.2126 282.609C60.625 283.267 57.3312 284.255 57.3312 285.573C57.3312 286.89 68.5301 288.537 90.9279 290.514C113.326 292.49 143.299 293.807 180.848 294.466C218.397 295.125 237.501 303.03 238.16 318.181C238.819 333.333 238.49 342.226 237.172 344.861C235.855 347.496 228.608 356.06 215.433 370.553C202.258 385.045 188.753 396.903 174.919 406.126C168.003 410.737 161.086 415.348 154.169 419.959C154.827 420.289 155.486 420.618 156.145 420.948C157.462 421.606 163.721 419.301 174.919 414.031C186.118 408.761 199.623 399.538 215.433 386.363C223.338 379.775 231.243 373.188 239.148 366.6C239.807 384.057 240.466 401.514 241.125 418.971C242.442 453.885 243.43 474.636 244.089 481.224C244.748 487.812 245.736 491.105 247.053 491.105C248.371 491.105 250.018 466.731 251.994 417.983C253.97 369.235 256.935 342.226 260.887 336.956C264.84 331.686 269.122 323.451 273.733 312.253C278.344 301.054 305.024 294.796 353.772 293.478C402.52 292.16 431.176 291.172 439.74 290.514C448.304 289.855 453.903 289.196 456.538 288.537C459.173 287.879 460.491 286.89 460.491 285.573C460.491 284.255 431.835 282.609 374.523 280.632C345.867 279.644 317.211 278.656 288.555 277.668C291.52 267.457 294.484 257.246 297.448 247.036C303.377 226.614 307.659 206.851 310.294 187.747C311.612 178.195 312.929 168.643 314.247 159.091C316.882 166.008 319.517 172.925 322.152 179.842C327.422 193.676 331.374 203.228 334.009 208.498C336.644 213.768 338.621 216.403 339.938 216.403C340.597 216.403 341.256 216.403 341.915 216.403C337.303 197.299 332.692 178.195 328.081 159.091C318.858 120.883 312.27 102.109 308.318 102.768C304.365 103.426 300.413 119.895 296.46 152.174C292.508 184.454 287.896 211.133 282.626 232.214C277.356 253.294 273.733 266.14 271.757 270.751C269.781 275.362 266.816 277.668 262.864 277.668C258.911 277.668 256.276 243.412 254.959 174.902C253.641 106.391 252.323 61.9247 251.006 41.5032C249.688 21.0817 248.371 10.5416 247.053 9.88283C246.395 9.55345 245.736 9.22407 245.077 8.8947C243.76 37.5507 242.442 66.2066 241.125 94.8626Z" fill="#ffffff" fill-rule="evenodd" opacity="1" stroke="#ffffff" stroke-linecap="round" stroke-linejoin="round" stroke-width="1"/>
<path d="M223.658 268.276C219.104 275.108 214.55 281.939 209.996 288.77C214.875 288.77 219.755 288.77 224.634 288.77C229.513 288.77 234.393 288.77 239.272 288.77C238.947 281.939 238.622 275.108 238.296 268.276C237.971 261.445 237.646 254.614 237.32 247.783C232.766 254.614 228.212 261.445 223.658 268.276Z" fill="#000000" fill-rule="evenodd" opacity="1" stroke="#ffffff" stroke-linecap="round" stroke-linejoin="round" stroke-width="1"/>
<path d="M257.814 313.167C257.489 315.444 257.163 317.721 256.838 319.998C258.139 318.046 259.44 316.094 260.741 314.143C262.043 312.191 263.344 310.239 264.645 308.287C263.669 307.962 262.693 307.637 261.717 307.312C260.741 306.986 259.766 306.661 258.79 306.336C258.464 308.613 258.139 310.89 257.814 313.167Z" fill="#ffffff" fill-rule="evenodd" opacity="1" stroke="#ffffff" stroke-linecap="round" stroke-linejoin="round" stroke-width="1"/>
</g>
<g id="Слой-4-скопировать-скопировать" vectornator:layerName="Слой 4 скопировать скопировать" visibility="hidden">
<path d="M244.555 124.341C242.42 170.763 240.019 198.243 237.351 206.78C234.683 215.317 230.681 224.655 225.346 234.793C220.01 244.931 213.607 253.735 206.137 261.205C198.666 268.675 181.058 272.944 153.312 274.011C125.566 275.078 109.025 275.879 103.689 276.412C98.3529 276.946 95.685 277.746 95.685 278.813C95.685 279.881 104.756 281.215 122.898 282.815C141.04 284.416 165.318 285.483 195.732 286.017C226.146 286.55 241.62 292.953 242.153 305.226C242.687 317.498 242.42 324.702 241.353 326.836C240.286 328.97 234.416 335.907 223.745 347.646C213.073 359.384 202.135 368.989 190.929 376.459C185.327 380.194 179.724 383.929 174.122 387.664C174.655 387.931 175.189 388.198 175.722 388.465C176.79 388.998 181.859 387.131 190.929 382.862C200 378.593 210.939 371.123 223.745 360.452C230.148 355.116 236.551 349.78 242.954 344.444C243.487 358.584 244.021 372.724 244.555 386.864C245.622 415.144 246.422 431.952 246.956 437.287C247.489 442.623 248.29 445.291 249.357 445.291C250.424 445.291 251.758 425.549 253.359 386.064C254.959 346.578 257.36 324.702 260.562 320.433C263.763 316.164 267.232 309.494 270.967 300.424C274.702 291.353 296.312 286.284 335.797 285.216C375.282 284.149 398.493 283.349 405.43 282.815C412.366 282.282 416.902 281.748 419.036 281.215C421.17 280.681 422.237 279.881 422.237 278.813C422.237 277.746 399.027 276.412 352.605 274.812C329.394 274.011 306.183 273.211 282.972 272.41C285.374 264.14 287.775 255.869 290.176 247.599C294.978 231.058 298.446 215.05 300.581 199.576C301.648 191.84 302.715 184.103 303.782 176.366C305.916 181.968 308.051 187.571 310.185 193.173C314.454 204.379 317.655 212.116 319.79 216.384C321.924 220.653 323.525 222.787 324.592 222.787C325.125 222.787 325.659 222.787 326.193 222.787C322.458 207.313 318.722 191.84 314.987 176.366C307.517 145.418 302.181 130.211 298.98 130.744C295.778 131.278 292.577 144.617 289.375 170.763C286.174 196.909 282.439 218.519 278.17 235.593C273.902 252.668 270.967 263.073 269.366 266.808C267.765 270.543 265.364 272.41 262.163 272.41C258.961 272.41 256.827 244.664 255.76 189.172C254.693 133.679 253.625 97.6622 252.558 81.1212C251.491 64.5801 250.424 56.0428 249.357 55.5092C248.823 55.2424 248.29 54.9756 247.756 54.7088C246.689 77.9197 245.622 101.131 244.555 124.341Z" fill="#ffffff" fill-rule="evenodd" opacity="1" stroke="#000000" stroke-linecap="round" stroke-linejoin="round" stroke-width="1"/>
<path d="M230.407 264.804C226.718 270.337 223.029 275.87 219.341 281.403C223.293 281.403 227.245 281.403 231.197 281.403C235.15 281.403 239.102 281.403 243.054 281.403C242.791 275.87 242.527 270.337 242.264 264.804C242 259.27 241.737 253.737 241.473 248.204C237.784 253.737 234.096 259.27 230.407 264.804Z" fill="#000000" fill-rule="evenodd" opacity="1" stroke="#ffffff" stroke-linecap="round" stroke-linejoin="round" stroke-width="1"/>
<path d="M258.073 301.164C257.809 303.008 257.546 304.853 257.282 306.697C258.336 305.116 259.39 303.535 260.444 301.955C261.498 300.374 262.552 298.793 263.606 297.212C262.815 296.948 262.025 296.685 261.234 296.421C260.444 296.158 259.653 295.894 258.863 295.631C258.599 297.475 258.336 299.32 258.073 301.164Z" fill="#000000" fill-rule="evenodd" opacity="1" stroke="#000000" stroke-linecap="round" stroke-linejoin="round" stroke-width="1"/>
</g>
</svg>
