<?xml version="1.0" encoding="UTF-8" standalone="no"?>
<!DOCTYPE svg PUBLIC "-//W3C//DTD SVG 1.1//EN" "http://www.w3.org/Graphics/SVG/1.1/DTD/svg11.dtd"
[
<!ATTLIST g
  xmlns:vectornator CDATA #FIXED "http://vectornator.io"
  vectornator:layerName CDATA #IMPLIED >
<!ATTLIST g
  xmlns:vectornator CDATA #FIXED "http://vectornator.io"
  vectornator:mask CDATA #IMPLIED >
<!ATTLIST text
  xmlns:vectornator CDATA #FIXED "http://vectornator.io"
  vectornator:width CDATA #IMPLIED >
<!ATTLIST text
  xmlns:vectornator CDATA #FIXED "http://vectornator.io"
  vectornator:text CDATA #IMPLIED >

<!ATTLIST path
  xmlns:vectornator CDATA #FIXED "http://vectornator.io"
  vectornator:blendMode CDATA #IMPLIED >
<!ATTLIST path
  xmlns:vectornator CDATA #FIXED "http://vectornator.io"
  vectornator:shadowColor CDATA #IMPLIED >
<!ATTLIST path
  xmlns:vectornator CDATA #FIXED "http://vectornator.io"
  vectornator:shadowOpacity CDATA #IMPLIED >
<!ATTLIST path
  xmlns:vectornator CDATA #FIXED "http://vectornator.io"
  vectornator:shadowRadius CDATA #IMPLIED >
<!ATTLIST path
  xmlns:vectornator CDATA #FIXED "http://vectornator.io"
  vectornator:shadowOffset CDATA #IMPLIED >
<!ATTLIST path
  xmlns:vectornator CDATA #FIXED "http://vectornator.io"
  vectornator:shadowAngle CDATA #IMPLIED >

<!ATTLIST image
  xmlns:vectornator CDATA #FIXED "http://vectornator.io"
  vectornator:blendMode CDATA #IMPLIED >
<!ATTLIST image
  xmlns:vectornator CDATA #FIXED "http://vectornator.io"
  vectornator:shadowColor CDATA #IMPLIED >
<!ATTLIST image
  xmlns:vectornator CDATA #FIXED "http://vectornator.io"
  vectornator:shadowOpacity CDATA #IMPLIED >
<!ATTLIST image
  xmlns:vectornator CDATA #FIXED "http://vectornator.io"
  vectornator:shadowRadius CDATA #IMPLIED >
<!ATTLIST image
  xmlns:vectornator CDATA #FIXED "http://vectornator.io"
  vectornator:shadowOffset CDATA #IMPLIED >
<!ATTLIST image
  xmlns:vectornator CDATA #FIXED "http://vectornator.io"
  vectornator:shadowAngle CDATA #IMPLIED >

<!ATTLIST g
  xmlns:vectornator CDATA #FIXED "http://vectornator.io"
  vectornator:blendMode CDATA #IMPLIED >
<!ATTLIST g
  xmlns:vectornator CDATA #FIXED "http://vectornator.io"
  vectornator:shadowColor CDATA #IMPLIED >
<!ATTLIST g
  xmlns:vectornator CDATA #FIXED "http://vectornator.io"
  vectornator:shadowOpacity CDATA #IMPLIED >
<!ATTLIST g
  xmlns:vectornator CDATA #FIXED "http://vectornator.io"
  vectornator:shadowRadius CDATA #IMPLIED >
<!ATTLIST g
  xmlns:vectornator CDATA #FIXED "http://vectornator.io"
  vectornator:shadowOffset CDATA #IMPLIED >
<!ATTLIST g
  xmlns:vectornator CDATA #FIXED "http://vectornator.io"
  vectornator:shadowAngle CDATA #IMPLIED >

<!ENTITY % SVG.filter.extra.content  "| feDropShadow" >
<!ELEMENT feDropShadow EMPTY>
<!ATTLIST feDropShadow
  xmlns:svg CDATA #FIXED "http://www.w3.org/Graphics/SVG/1.1/DTD/svg11.dtd"
  dx CDATA #IMPLIED>
<!ATTLIST feDropShadow
  xmlns:svg CDATA #FIXED "http://www.w3.org/Graphics/SVG/1.1/DTD/svg11.dtd"
  dy CDATA #IMPLIED>
<!ATTLIST feDropShadow
  xmlns:svg CDATA #FIXED "http://www.w3.org/Graphics/SVG/1.1/DTD/svg11.dtd"
  stdDeviation CDATA #IMPLIED>
<!ATTLIST feDropShadow
  xmlns:svg CDATA #FIXED "http://www.w3.org/Graphics/SVG/1.1/DTD/svg11.dtd"
  flood-opacity CDATA #IMPLIED>
<!ATTLIST feDropShadow
  xmlns:svg CDATA #FIXED "http://www.w3.org/Graphics/SVG/1.1/DTD/svg11.dtd"
  in CDATA #IMPLIED>
<!ATTLIST feDropShadow
  xmlns:svg CDATA #FIXED "http://www.w3.org/Graphics/SVG/1.1/DTD/svg11.dtd"
  result CDATA #IMPLIED>
<!ATTLIST feDropShadow
  xmlns:svg CDATA #FIXED "http://www.w3.org/Graphics/SVG/1.1/DTD/svg11.dtd"
  flood-color CDATA #IMPLIED>
]
>
<!-- Created with Vectornator (http://vectornator.io/) -->
<svg height="100%" stroke-miterlimit="10" style="fill-rule:nonzero;clip-rule:evenodd;stroke-linecap:round;stroke-linejoin:round;" version="1.1" viewBox="0 0 500 500" width="100%" xml:space="preserve" xmlns="http://www.w3.org/2000/svg" xmlns:vectornator="http://vectornator.io" xmlns:xlink="http://www.w3.org/1999/xlink">
<defs/>
<g id="Untitled" vectornator:layerName="Untitled">
<path d="M40.1 129.2L40.1 371.6L250 492.7L459.9 371.6L459.9 129.2L250 8L40.1 129.2Z" fill="#ffffff" fill-rule="evenodd" opacity="1" stroke="#aa7d50" stroke-linecap="butt" stroke-linejoin="miter" stroke-width="2.5"/>
<path d="M332.2 205.3C337.146 203 342.854 203 347.8 205.3L392.9 229C395.6 230.4 397 232.5 397.3 234.6L397.3 353.7C397.2 356 395.8 358.4 392.9 359.9L347.8 383.6C342.854 385.9 337.146 385.9 332.2 383.6L287.1 359.9C284.2 358.4 282.8 356 282.8 353.7L282.8 234.6C283 232.4 284.4 230.4 287.1 229C287.1 229 332.2 205.3 332.2 205.3ZM390.2 301.1L347.8 323.4C342.854 325.7 337.146 325.7 332.2 323.4L289.9 301.2L289.9 353.6L332.2 375.7C334.6 377 337.1 378.2 339.5 378.4L340 378.4C342.5 378.4 345 377.1 347.5 375.9L390.2 353.4C390.2 353.4 390.2 301.1 390.2 301.1ZM275.5 351.1C275.5 355.7 276 358.7 277.1 360.8C278.166 362.764 279.759 364.392 281.7 365.5L281.8 365.6L283.6 366.8L284.4 367.3L287 368.8L283.3 374.8L280.4 373.1L279.9 372.8L277.7 371.4C270.9 366.8 268.3 361.8 268.2 351.4L268.2 351.1C268.2 351.1 275.5 351.1 275.5 351.1ZM336.5 269.1L335.6 269.5L290.5 293.2L290.4 293.3L290.5 293.3L290.6 293.4L335.7 317.1L336.6 317.5L336.6 269.1L336.5 269.1ZM343.6 269.1L343.6 317.5L344.5 317.1L389.6 293.4L389.7 293.3L389.6 293.3L389.5 293.2L344.4 269.5C344.4 269.5 343.6 269.1 343.6 269.1ZM390.2 243.1L349.8 264.4L390.2 285.7L390.2 243.1ZM289.9 243.1L289.9 285.5L330.3 264.3L289.9 243.1ZM344.5 211.5C341.654 210.306 338.446 210.306 335.6 211.5L290.5 235.2L290.4 235.3L290.5 235.3L290.6 235.4L335.7 259.1C338 260.3 342.3 260.3 344.6 259.1L389.7 235.4L389.8 235.3L389.7 235.3L389.6 235.2C389.6 235.2 344.5 211.5 344.5 211.5ZM396.9 214.1L399.8 215.8L400.3 216.1L402.5 217.5C409.3 222.1 411.9 227.1 412 237.5L412 237.8L404.9 237.8C404.9 233.2 404.4 230.2 403.3 228.1C402.234 226.136 400.641 224.508 398.7 223.4L398.6 223.3L396.8 222.1L396 221.6L393.4 220.1C393.4 220.1 396.9 214.1 396.9 214.1Z" fill="#1969ff" fill-rule="evenodd" opacity="1" stroke="none"/>
</g>
<g id="Слой-1" vectornator:layerName="Слой 1">
<path d="M123.9 321.7L123.9 330.2L127.7 328.1L131.4 326L135.4 328.2L139.4 330.5L142 332L142 344.2L140.7 345L139.3 345.8L135.3 348.1L131.3 350.5L126 347.4L120.7 344.3L120.7 319.9C122 320.5 123 321 123.9 321.7ZM131.4 329.6L127.6 331.7L123.8 333.9L123.8 342.4C125.1 343.1 126.3 343.9 127.6 344.5L131.3 346.6L135.1 344.5L138.9 342.3L138.9 333.8C137.6 333.1 136.4 332.3 135.1 331.7L131.4 329.6ZM155.4 325.9L160.7 329L166 332.1L166 344.2L165.8 344.1L165.6 344L164.3 343.2L162.9 342.4L162.9 333.9L162.8 333.8L162.5 333.7L162.2 333.6L162 333.5L158.7 331.6L155.4 329.7L151.7 331.8L147.9 334L147.9 342.5L151.4 344.6C152.6 345.3 153.8 345.9 154.9 346.7L155.1 346.8L155.3 346.9L155.5 346.8L155.8 346.7L157.7 345.6L159.5 344.6L161.1 345.5L162.6 346.5L158.9 348.6L155.2 350.7L149.9 347.6L144.7 344.5L144.7 332.3L149.9 329.3C149.9 329.3 155.4 325.9 155.4 325.9ZM166.1 344.3L166.1 347.9L162.9 346.1L159.8 344.3L161.3 343.4L162.8 342.5L164.3 343.4L166.1 344.3ZM178.4 326.3L182.4 328.6L186.4 331L187.7 331.7L189 332.5L187.5 333.3L186 334.2L182.2 332.1L178.5 330L174.7 332.1L170.9 334.2L171.5 334.6L172.1 334.9L176.1 337.2L180.1 339.5L183.5 341.4L187 343.4L188.1 344.1L189.2 344.8L184 347.8L178.8 350.8L173.5 347.8C171.7 346.8 170 345.7 168.2 344.8L169.7 343.8L171.3 342.9C172.5 343.6 173.7 344.4 175 345L178.8 347.1L180.9 345.8L183 344.5L182.1 343.9L181.2 343.3L174.7 339.5L168.2 335.7L168.2 332.1L173.5 329C173.5 329 178.4 326.3 178.4 326.3ZM212.1 332L206.9 335.1L201.6 338.2L200.1 337.3L198.6 336.4C199.8 335.7 201 334.9 202.3 334.3L206 332.2L203.9 330.9L201.8 329.7L198 331.8L194.2 334L194.2 342.5C195.5 343.2 196.7 344 198 344.6L201.7 346.7C203 346 204.2 345.2 205.5 344.6C206.743 343.858 208.01 343.157 209.3 342.5L212.4 344.3L207.2 347.4L201.9 350.4L196.7 347.4C194.9 346.4 193.2 345.3 191.4 344.4L191.4 332.2L196 329.6C197.512 328.696 199.045 327.829 200.6 327L201.3 326.6L202 326.2C202.1 326.1 202.3 326.2 202.4 326.3L202.9 326.6L207.8 329.5C209 330.1 210.6 331 212.1 332ZM232.8 322.1L235.9 320.3L235.9 344.7L230.6 347.8L225.3 350.9L221.3 348.5L217.3 346.2L215.9 345.4L214.6 344.6L214.6 332.4L217.2 330.9L221.2 328.6L225.2 326.4L228.9 328.5L232.7 330.6C232.7 330.6 232.8 322.1 232.8 322.1ZM225.3 329.9C224 330.6 222.8 331.4 221.5 332C220.257 332.742 218.99 333.443 217.7 334.1L217.7 342.6L221.5 344.8C222.8 345.5 224 346.3 225.3 346.9C226.5 346.2 227.7 345.4 229 344.8L232.8 342.7L232.8 334.2L229 332C229 332 225.3 329.9 225.3 329.9Z" fill="#000000" fill-rule="evenodd" opacity="1" stroke="none"/>
<path d="M138 154.3L138 200.5C145.1 196.7 151.9 192.9 158.4 189.1L178.1 177.7L199.8 189.6C207 193.6 214.2 197.7 221.5 202L235.5 210.4L235.5 276.2C233.165 277.652 230.797 279.052 228.4 280.4L221 284.6L199.7 296.7C192.556 300.826 185.456 305.026 178.4 309.3L149.7 292.7L121 276.1L121 208.4L121.1 176C121.2 165.2 121.2 154.8 121 145L121 144.6C127.2 147.8 132.8 151.1 138 154.3L138 154.3ZM178.6 196.8L158.3 208.3L138 220.1L138 266.3L158.3 278C165 281.8 171.6 285.7 178.2 289.7L198.5 278.2L218.8 266.4L218.8 220.2L198.7 208.5C192.025 204.557 185.325 200.656 178.6 196.8L178.6 196.8Z" fill="#aa7d50" fill-rule="evenodd" opacity="1" stroke="none"/>
</g>
</svg>
